<svg width="40" height="40" viewBox="0 0 40 40" fill="none" xmlns="http://www.w3.org/2000/svg">
<rect width="40" height="40" rx="16" fill="white" fill-opacity="0.5"/>
<g clip-path="url(#clip0_216_10)">
<path d="M16.5563 10.2375C16.2315 9.45281 15.3751 9.03515 14.5566 9.25874L10.8441 10.2712C10.1101 10.4737 9.59961 11.1403 9.59961 11.8997C9.59961 22.3369 18.0624 30.7997 28.4996 30.7997C29.259 30.7997 29.9255 30.2892 30.128 29.5551L31.1405 25.8426C31.3641 25.0242 30.9465 24.1678 30.1618 23.843L26.1118 22.1555C25.4241 21.8686 24.6268 22.0669 24.1585 22.6448L22.4541 24.7247C19.4841 23.3198 17.0795 20.9151 15.6746 17.9451L17.7545 16.245C18.3324 15.7725 18.5307 14.9794 18.2438 14.2917L16.5563 10.2417V10.2375Z" fill="#342B26"/>
</g>
<defs>
<clipPath id="clip0_216_10">
<rect width="21.6" height="21.6" fill="white" transform="translate(9.59961 9.19995)"/>
</clipPath>
</defs>
</svg>
