<svg width="40" height="40" viewBox="0 0 40 40" fill="none" xmlns="http://www.w3.org/2000/svg">
<rect width="40" height="40" rx="16" fill="white" fill-opacity="0.5"/>
<path d="M27.7855 11.3131C25.6531 9.17562 22.8132 8 19.7953 8C13.566 8 8.49709 13.0689 8.49709 19.2982C8.49709 21.2881 9.01619 23.2322 10.0035 24.9473L8.40039 30.8L14.3905 29.2274C16.0394 30.1282 17.897 30.6015 19.7902 30.6015H19.7953C26.0195 30.6015 31.2004 25.5326 31.2004 19.3033C31.2004 16.2854 29.9179 13.4506 27.7855 11.3131ZM19.7953 28.6981C18.1057 28.6981 16.4516 28.2452 15.0114 27.3902L14.6704 27.1866L11.1181 28.1179L12.0647 24.6521L11.8407 24.2959C10.8992 22.7996 10.4056 21.0744 10.4056 19.2982C10.4056 14.1224 14.6195 9.90848 19.8004 9.90848C22.3094 9.90848 24.6657 10.8856 26.4368 12.6618C28.2079 14.4379 29.297 16.7943 29.2919 19.3033C29.2919 24.4842 24.9711 28.6981 19.7953 28.6981ZM24.9457 21.6647C24.6657 21.5222 23.2764 20.8403 23.0168 20.7487C22.7573 20.652 22.569 20.6062 22.3807 20.8912C22.1924 21.1762 21.6529 21.8072 21.4849 22.0006C21.3221 22.1889 21.1541 22.2144 20.8742 22.0719C19.2151 21.2423 18.126 20.5909 17.0318 18.7129C16.7417 18.2142 17.3219 18.2498 17.8614 17.1709C17.953 16.9826 17.9072 16.8197 17.8359 16.6772C17.7647 16.5347 17.1998 15.1454 16.9657 14.5804C16.7366 14.0308 16.5025 14.1071 16.3295 14.097C16.1666 14.0868 15.9783 14.0868 15.79 14.0868C15.6017 14.0868 15.2964 14.158 15.0368 14.4379C14.7773 14.7229 14.0495 15.4049 14.0495 16.7943C14.0495 18.1837 15.0623 19.5272 15.1997 19.7155C15.3422 19.9038 17.1896 22.7538 20.0243 23.9804C21.8157 24.7539 22.5181 24.8201 23.4138 24.6878C23.9583 24.6063 25.0831 24.0058 25.3172 23.3442C25.5513 22.6826 25.5513 22.1177 25.48 22.0006C25.4139 21.8734 25.2256 21.8021 24.9457 21.6647Z" fill="#342B26"/>
</svg>
